<svg xmlns="http://www.w3.org/2000/svg" width="1920" height="1080" viewBox="0 0 1920 1080">
    <defs>
        <style>
            .cls-1, .cls-2 {
            fill: none;
            stroke: #ec7f00;
            stroke-width: 5px;
            }

            .cls-2 {
            fill-rule: evenodd;
            }
        </style>
    </defs>
    <g id="Монтажная_область_1" data-name="Монтажная область 1">
        <circle id="Эллипс_1" data-name="Эллипс 1" class="cls-1" cx="-69.5" cy="210.5" r="217.5"/>
        <path id="Эллипс_1-2" data-name="Эллипс 1" class="cls-2"
              d="M148.5,733C268.622,733,366,830.378,366,950.5S268.622,1168,148.5,1168-69,1070.62-69,950.5,28.378,733,148.5,733Zm0,0C268.622,733,366,830.378,366,950.5S268.622,1168,148.5,1168-69,1070.62-69,950.5,28.378,733,148.5,733Z"/>
        <path id="Эллипс_1-3" data-name="Эллипс 1" class="cls-2"
              d="M2005.14,450.882c120.12,0,217.5,97.378,217.5,217.5s-97.38,217.5-217.5,217.5-217.5-97.378-217.5-217.5S1885.02,450.882,2005.14,450.882Zm0,0c120.12,0,217.5,97.378,217.5,217.5s-97.38,217.5-217.5,217.5-217.5-97.378-217.5-217.5S1885.02,450.882,2005.14,450.882Z"/>
    </g>
</svg>
