<svg xmlns="http://www.w3.org/2000/svg" width="1920" height="1080" viewBox="0 0 1920 1080">
    <defs>
        <style>
            .cls-1 {
            fill: none;
            stroke: #ec7f00;
            stroke-width: 5px;
            fill-rule: evenodd;
            }
        </style>
    </defs>
    <g id="Монтажная_область_1" data-name="Монтажная область 1">
        <path id="Эллипс_1" data-name="Эллипс 1" class="cls-1"
              d="M-15,69c4.992-8.564,59.9,6.256,107,44,28.943,23.195,50.561,51.456,64,83,16.075,37.73,18.154,73.424,13,75-7.874,2.407-25.735-77.525-72-86C50.776,176.533,4.106,245.7-5,239c-5.327-3.919,5.487-31.083,19-54,8.374-14.2,13.879-36.167,9-48C6.385,96.707-20.361,78.2-15,69Z"/>
        <path id="Эллипс_1-2" data-name="Эллипс 1" class="cls-1"
              d="M127,886c125.7-24.6,248.071,8.943,248,32-0.1,33.674-261.376,43.293-264,97-1.6,32.74,96,53.81,93,68-5.065,23.96-293.624,14.63-306-55.5C-110.535,979.137,13.412,908.228,127,886Z"/>
        <path id="Эллипс_1-3" data-name="Эллипс 1" class="cls-1"
              d="M1798,493c48.82-18.67,116.8,53.516,136,76,98.1,114.9,96.57,288.689,61,301-27.73,9.6-64.79-97.787-129-95-42.47,1.844-58.08,54.824-104,62-57.09,8.922-67.54-24.137-66-64,1.57-40.687,76.68-74.718,104-117C1834.95,601.916,1756.44,508.9,1798,493Z"/>
    </g>
</svg>
