<svg id="logo" xmlns="http://www.w3.org/2000/svg" width="2200" height="700" viewBox="150 150 2200 700">
  <defs>
    <style>
      .cls-1 {
        fill: #2a2a2a;
      }

      .cls-1, .cls-2, .cls-3, .cls-4 {
        fill-rule: evenodd;
      }

      .cls-2, .cls-4 {
        fill: #fff;
      }

      .cls-2 {
        stroke: #1e1e1e;
        stroke-width: 1px;
      }

      .cls-3 {
        fill: #b81515;
      }
    </style>
  </defs>
  <path id="Эллипс_2" data-name="Эллипс 2" class="cls-1" d="M489.455,180.031c176.711,0,319.964,143.253,319.964,319.964S666.166,819.958,489.455,819.958,169.492,676.705,169.492,500,312.744,180.031,489.455,180.031Z"/>
  <path id="Фигура_1" data-name="Фигура 1" class="cls-2" d="M282.883,341.668H480.054s33.477-.769,33.224,29.733c-0.267,32.116-31.779,30.477-31.779,30.477h-48.39V660.562c15.868,46.561,110.817,45.639,123.5-2.23V371.4s-0.259-29.694,29.612-29.733c27.52-.037,29.611,29.733,29.611,29.733l-0.722,286.188s0.74,93.673-119.169,94.4c-129.529.79-122.059-90.688-122.059-90.688V401.878l-92.376.418C246.415,402.375,242.417,342.484,282.883,341.668Z"/>
  <path id="Эллипс_1" data-name="Эллипс 1" class="cls-2" d="M585.5,267.333c15.956,0,28.89,13.312,28.89,29.734S601.457,326.8,585.5,326.8s-28.889-13.313-28.889-29.734S569.546,267.333,585.5,267.333Z"/>
  <path id="Фигура_2" data-name="Фигура 2" class="cls-3" d="M463,449c-21.518-3.473-31,7-31,7l-0.129,206.288c14.194,44.728,111.344,47.442,125.936-.644V454.92S538.45,438.941,513,453C487.286,467.205,473.918,450.762,463,449Z"/>
  <path id="Tomato_" data-name="Tomato " class="cls-3" d="M932.022,517.147h68.868V328.292h74.43v-54.6H857.245v54.6h74.777V517.147Zm241.368,3.13q30.6,0,54.96-12.521,24.33-12.52,37.91-34.78,13.56-22.254,13.56-50.431t-13.56-50.257q-13.575-22.082-37.91-34.432-24.36-12.34-54.96-12.347t-54.77,12.347a93.509,93.509,0,0,0-37.91,34.606q-13.755,22.263-13.74,50.083,0,28.173,13.74,50.431a94.418,94.418,0,0,0,38.08,34.78q24.345,12.52,54.6,12.521h0Zm0-52.518q-17.385,0-28.52-12t-11.12-33.215q0-20.868,11.12-32.693t28.52-11.825q17.4,0,28.52,11.825t11.13,32.693q0,21.219-11.13,33.215t-28.52,12h0Zm382.58-142.25a89.84,89.84,0,0,0-37.21,7.652,73.07,73.07,0,0,0-28.17,21.911,60.364,60.364,0,0,0-25.39-22.259q-15.66-7.3-35.48-7.3a84.4,84.4,0,0,0-31.47,5.739,66.174,66.174,0,0,0-24.87,17.216V328.64h-62.95V517.147h66.08V423.589q0-21.21,9.04-31.65t24.35-10.434q28.515,0,28.52,38.606v97.036h66.08V423.589q0-21.21,9.04-31.65t24-10.434q13.56,0,21.04,9.391t7.48,29.215v97.036h66.08V409.329q0-42.078-20.69-62.952t-55.48-20.868h0Zm198.25,0a180.988,180.988,0,0,0-45.04,5.739q-22.44,5.739-38.09,16.173l22.26,44.866a73.388,73.388,0,0,1,23.65-12,91.868,91.868,0,0,1,27.48-4.348q38.25,0,40,29.911h-37.57q-42.765,0-63.29,14.782T1663.1,462.2a54.808,54.808,0,0,0,8.17,29.736q8.16,13.042,24.17,20.694,15.99,7.647,37.91,7.652,41.385,0,55.65-27.476v24.346h61.56V412.459q0-44.164-24.69-65.56t-71.65-21.39h0Zm-2.44,153.032q-11.475,0-18.08-5.217a16.814,16.814,0,0,1-6.61-13.912q0-19.123,28.87-19.129h28.52V456.63q-3.84,10.784-12.52,16.346a36.6,36.6,0,0,1-20.18,5.565h0Zm254.25-15.3a35.019,35.019,0,0,1-20.18,5.912q-9.045,0-14.43-5.738-5.4-5.739-5.39-15.825v-62.6h43.13V335.6h-43.13v-49.04h-66.08V335.6h-27.48v49.387h27.48v63.3q0,35.826,19.82,53.908t56.69,18.086a113.121,113.121,0,0,0,25.57-2.782,66.565,66.565,0,0,0,20.34-8Zm130.77,57.039q30.6,0,54.95-12.521t37.91-34.78q13.56-22.254,13.56-50.431t-13.56-50.257q-13.56-22.082-37.91-34.432t-54.95-12.347q-30.615,0-54.78,12.347a93.572,93.572,0,0,0-37.91,34.606q-13.74,22.263-13.74,50.083,0,28.173,13.74,50.431a94.482,94.482,0,0,0,38.08,34.78q24.345,12.52,54.61,12.521h0Zm0-52.518q-17.4,0-28.52-12-11.145-12-11.13-33.215,0-20.868,11.13-32.693t28.52-11.825q17.385,0,28.52,11.825,11.115,11.829,11.13,32.693,0,21.219-11.13,33.215-11.145,12-28.52,12h0Z"/>
  <path id="juice" class="cls-4" d="M919.09,726.283q25.625,0,39.9-14.548t14.28-39.638V528.759h-41.64V672.364q0,10.41-4.538,15.615t-12.545,5.2q-10.41,0-17.617-5.071l-11.211,30.162q11.481,8.009,33.366,8.008h0ZM952.455,508.74h0Zm156.955,21.087v71q0,19.218-9.08,28.961t-24.02,9.743q-29.1,0-29.1-34.7V529.827h-41.64v81.145q0,32.031,16.55,48.313t44.85,16.282a62.158,62.158,0,0,0,24.82-4.938,55.2,55.2,0,0,0,19.75-14.28v17.083h39.51V529.827h-41.64Zm73.93,143.605h41.64V529.827h-41.64V673.432Zm145.13,4.271q22.68,0,39.63-9.609a57.322,57.322,0,0,0,24.69-26.693l-32.29-17.617q-10.95,19.757-32.3,19.753-16.29,0-26.96-10.677t-10.68-29.1q0-18.418,10.68-29.1Q1311.9,564,1328.2,563.993q21.075,0,32.3,19.753l32.29-17.35A56.2,56.2,0,0,0,1368.1,539.3q-16.95-9.472-39.63-9.476-22.965,0-41.24,9.476a70.885,70.885,0,0,0-28.56,26.292q-10.29,16.817-10.28,38.17t10.28,38.17a70.857,70.857,0,0,0,28.56,26.292q18.27,9.479,41.24,9.476h0Zm239.09-73.4q0-22.422-9.74-39.371A66.32,66.32,0,0,0,1531,538.9q-17.085-9.072-38.17-9.076-21.63,0-39.11,9.476a70.083,70.083,0,0,0-27.49,26.425,73.431,73.431,0,0,0-10.01,38.037q0,21.359,10.14,38.17a69.413,69.413,0,0,0,28.83,26.292q18.675,9.479,42.97,9.476,38.97,0,59.26-23.223l-22.15-24.023A48.251,48.251,0,0,1,1519.12,641a55.1,55.1,0,0,1-19.89,3.336q-16.275,0-27.22-7.74a33.78,33.78,0,0,1-13.88-21.087h108.63q0.81-10.41.8-11.211h0Zm-74.47-42.975q13.875,0,23.49,8.141t11.75,21.755h-70.74q2.13-13.876,11.75-21.888,9.6-8.008,23.75-8.008h0Z"/>
</svg>
